<?xml version="1.0" encoding="utf-8"?>
<!-- Generator: Adobe Illustrator 23.0.2, SVG Export Plug-In . SVG Version: 6.00 Build 0)  -->
<svg version="1.1" id="Layer_1" xmlns="http://www.w3.org/2000/svg" xmlns:xlink="http://www.w3.org/1999/xlink" x="0px" y="0px"
	 viewBox="0 0 980 980" style="enable-background:new 0 0 980 980;" xml:space="preserve">
<style type="text/css">
	.st0{fill:#FFFFFF;}
</style>
<title>Bitmap</title>
<desc>Created with Sketch.</desc>
<g>
	<circle cx="490" cy="490" r="490"/>
	<g>
		<path class="st0" d="M764.9,478.6c0-149.4-121.5-270.9-270.9-270.9c-149.4,0-270.9,121.5-270.9,270.9
			c0,69.1,26.1,134.9,73.4,185.4l0,0c6.4,6.7,17,7.1,23.7,0.7l29.2-27.5c6.7-6.3,7.1-16.9,0.8-23.7l0,0
			c-34.5-36.7-53.4-84.6-53.4-134.9c0-108.7,88.4-197.2,197.2-197.2c108.7,0,197.2,88.5,197.2,197.2c0,50.3-19,98.2-53.4,134.9
			l0.1,0.1c-6.3,6.8-5.9,17.3,0.8,23.6l29.2,27.5c6.8,6.4,17.4,6,23.7-0.7l0,0C738.8,613.5,764.9,547.7,764.9,478.6"/>
		<path class="st0" d="M867.2,477.3c0-36.9-5.5-73.3-16.5-108.2h0c0,0,0-0.1,0-0.1c0,0,0-0.1,0-0.1c-2.8-8.7-12.2-13.6-21-10.8
			l-38.3,11.9c-8.8,2.7-13.8,12.1-11.1,21l0,0c8.7,27.8,13.1,56.9,13.1,86.4c0,52.1-14.1,103.2-40.8,147.7l0,0
			c-4.7,7.9-2.1,18.2,5.8,22.9l34.4,20.6c7.9,4.8,18.2,2.2,23-5.8C849.5,606.9,867.2,542.7,867.2,477.3"/>
		<path class="st0" d="M235.3,625c-26.7-44.6-40.8-95.6-40.8-147.7c0-29.5,4.4-58.5,13.1-86.4h0v0v0c2.7-8.9-2.2-18.2-11-21
			L158.3,358c-8.8-2.7-18.1,2.2-20.9,10.9l-0.1,0c-11,35-16.5,71.5-16.5,108.5c0,65.4,17.7,129.6,51.2,185.6l0.1,0
			c4.8,7.9,15,10.4,23,5.7l34.4-20.6C237.3,643.1,239.9,633,235.3,625L235.3,625z"/>
	</g>
</g>
</svg>
