<?xml version="1.0" encoding="UTF-8"?>
<svg width="203px" height="116px" viewBox="0 0 203 116" version="1.1" xmlns="http://www.w3.org/2000/svg" xmlns:xlink="http://www.w3.org/1999/xlink">
    <!-- Generator: Sketch 56.2 (81672) - https://sketch.com -->
    <title>soundcloud-seeklogo.com 2</title>
    <desc>Created with Sketch.</desc>
    <defs>
        <path d="M182.823,112.105 L180.995,112.105 L180.995,100.753 L182.959,100.753 C186.881,100.753 188.498,102.634 188.498,106.429 C188.498,109.824 186.721,112.105 182.823,112.105 Z M183.088,97.144 L177.284,97.144 L177.284,115.71 L182.823,115.71 C187.6,115.71 192.317,112.951 192.317,106.429 C192.317,99.638 188.395,97.144 183.088,97.144 Z M168.928,107.57 C168.928,110.539 167.473,112.369 165.114,112.369 C162.748,112.369 161.319,110.486 161.319,107.515 L161.319,97.144 L157.608,97.144 L157.608,107.57 C157.608,112.976 160.629,116 165.114,116 C169.832,116 172.643,112.896 172.643,107.515 L172.643,97.144 L168.928,97.144 L168.928,107.57 Z M145.887,112.314 C142.889,112.314 141.643,109.742 141.643,106.429 C141.643,103.113 142.889,100.543 145.887,100.543 C148.879,100.543 150.127,103.113 150.127,106.429 C150.127,109.742 148.879,112.314 145.887,112.314 Z M145.887,96.855 C140.819,96.855 137.825,100.779 137.825,106.429 C137.825,112.08 140.819,116 145.887,116 C150.952,116 153.948,112.08 153.948,106.429 C153.948,100.779 150.952,96.855 145.887,96.855 Z M128.661,97.144 L124.95,97.144 L124.95,115.71 L136.106,115.71 L136.106,112.048 L128.661,112.048 L128.661,97.144 Z M114.891,100.543 C116.561,100.543 117.623,101.285 118.286,102.556 L121.733,100.966 C120.565,98.552 118.444,96.855 114.942,96.855 C110.094,96.855 106.698,100.779 106.698,106.429 C106.698,112.289 109.957,116 114.811,116 C118.18,116 120.407,114.435 121.68,111.81 L118.551,109.953 C117.571,111.599 116.586,112.314 114.918,112.314 C112.133,112.314 110.514,109.767 110.514,106.429 C110.514,102.982 112.11,100.543 114.891,100.543 Z M93.913,112.105 L92.086,112.105 L92.086,100.753 L94.049,100.753 C97.975,100.753 99.593,102.634 99.593,106.429 C99.593,109.824 97.812,112.105 93.913,112.105 Z M94.181,97.144 L88.374,97.144 L88.374,115.71 L93.913,115.71 C98.688,115.71 103.409,112.951 103.409,106.429 C103.409,99.638 99.484,97.144 94.181,97.144 Z M79.941,104.998 C79.941,106.031 79.994,108.363 79.994,109.054 C79.755,108.576 79.148,107.648 78.698,106.957 L72.117,97.144 L68.565,97.144 L68.565,115.71 L72.226,115.71 L72.226,107.541 C72.226,106.507 72.173,104.175 72.173,103.486 C72.41,103.96 73.021,104.888 73.471,105.582 L80.287,115.71 L83.602,115.71 L83.602,97.144 L79.941,97.144 L79.941,104.998 Z M60.215,107.57 C60.215,110.539 58.753,112.369 56.396,112.369 C54.036,112.369 52.604,110.486 52.604,107.515 L52.604,97.144 L48.89,97.144 L48.89,107.57 C48.89,112.976 51.914,116 56.396,116 C61.115,116 63.927,112.896 63.927,107.515 L63.927,97.144 L60.215,97.144 L60.215,107.57 Z M37.169,112.314 C34.174,112.314 32.926,109.742 32.926,106.429 C32.926,103.113 34.174,100.543 37.169,100.543 C40.169,100.543 41.413,103.113 41.413,106.429 C41.413,109.742 40.169,112.314 37.169,112.314 Z M37.169,96.855 C32.105,96.855 29.111,100.779 29.111,106.429 C29.111,112.08 32.105,116 37.169,116 C42.232,116 45.231,112.08 45.231,106.429 C45.231,100.779 42.232,96.855 37.169,96.855 Z M20.088,104.361 C17.146,103.668 16.35,103.298 16.35,102.132 C16.35,101.31 17.013,100.46 19.001,100.46 C20.7,100.46 22.025,101.15 23.219,102.371 L25.897,99.771 C24.147,97.943 22.025,96.855 19.137,96.855 C15.475,96.855 12.506,98.923 12.506,102.293 C12.506,105.951 14.893,107.039 18.312,107.832 C21.812,108.627 22.45,109.16 22.45,110.353 C22.45,111.759 21.413,112.369 19.215,112.369 C17.438,112.369 15.768,111.759 14.469,110.246 L11.787,112.632 C13.194,114.701 15.899,116 19.001,116 C24.068,116 26.295,113.613 26.295,110.087 C26.295,106.054 23.032,105.048 20.088,104.361 Z M100.64,6.542 C99.146,6.542 97.919,7.77 97.897,9.276 L96.776,65.312 L97.899,85.65 C97.919,87.134 99.146,88.361 100.64,88.361 C102.129,88.361 103.356,87.134 103.377,85.628 L103.377,85.652 L104.596,65.312 L103.377,9.272 C103.356,7.77 102.129,6.542 100.64,6.542 Z M177.364,38.788 C173.956,38.788 170.704,39.479 167.743,40.719 C165.762,18.3 146.963,0.714 124.032,0.714 C118.42,0.714 112.952,1.818 108.12,3.688 C106.241,4.414 105.743,5.162 105.725,6.612 L105.725,85.562 C105.745,87.085 106.924,88.353 108.411,88.502 C108.475,88.509 176.92,88.543 177.364,88.543 C191.102,88.543 202.239,77.404 202.239,63.664 C202.239,49.925 191.102,38.788 177.364,38.788 Z M68.796,86.406 L68.796,86.396 L70.23,65.296 L68.796,19.312 C68.762,18.168 67.861,17.274 66.748,17.274 C65.631,17.274 64.73,18.168 64.698,19.312 L63.424,65.296 L64.7,86.404 C64.73,87.533 65.631,88.427 66.748,88.427 C67.861,88.427 68.757,87.533 68.796,86.398 L68.796,86.406 Z M50.143,88.429 C51.052,88.429 51.802,87.689 51.846,86.742 L53.516,65.289 L51.846,24.231 C51.802,23.283 51.052,22.542 50.143,22.542 C49.225,22.542 48.478,23.283 48.437,24.231 C48.437,24.232 46.958,65.289 46.958,65.289 L48.439,86.75 C48.478,87.689 49.225,88.429 50.143,88.429 Z M83.617,19.743 C82.299,19.743 81.246,20.79 81.22,22.127 L80.15,65.302 L81.22,86.076 C81.246,87.4 82.299,88.445 83.617,88.445 C84.93,88.445 85.979,87.4 86.008,86.062 L86.008,86.08 L87.208,65.304 L86.008,22.124 C85.979,20.79 84.93,19.743 83.617,19.743 Z M17.71,87.027 C18.236,87.027 18.661,86.611 18.723,86.037 L20.867,65.271 L18.725,43.72 C18.661,43.145 18.236,42.729 17.71,42.729 C17.177,42.729 16.749,43.147 16.696,43.72 C16.696,43.722 14.809,65.271 14.809,65.271 L16.696,86.031 C16.749,86.611 17.177,87.027 17.71,87.027 Z M33.796,88.21 C34.517,88.21 35.099,87.634 35.153,86.875 L37.062,65.275 L35.153,44.729 C35.101,43.971 34.519,43.398 33.796,43.398 C33.065,43.398 32.483,43.973 32.437,44.737 L30.755,65.275 L32.437,86.873 C32.483,87.634 33.065,88.21 33.796,88.21 Z M75.15,88.406 C76.36,88.406 77.338,87.433 77.37,86.195 L77.37,86.21 L78.689,65.3 L77.37,20.488 C77.338,19.248 76.36,18.279 75.15,18.279 C73.931,18.279 72.954,19.25 72.927,20.488 L71.754,65.3 L72.929,86.205 C72.954,87.433 73.931,88.406 75.15,88.406 Z M92.146,88.488 C93.537,88.488 94.687,87.339 94.712,85.931 L94.712,85.947 L94.712,85.931 L95.795,65.308 L94.712,13.927 C94.688,12.519 93.537,11.372 92.146,11.372 C90.752,11.372 89.601,12.519 89.581,13.93 L88.612,65.291 C88.612,65.324 89.581,85.945 89.581,85.945 C89.601,87.339 90.752,88.488 92.146,88.488 Z M58.413,88.386 C59.424,88.386 60.246,87.57 60.289,86.525 L61.842,65.293 L60.289,20.807 C60.248,19.762 59.424,18.946 58.413,18.946 C57.394,18.946 56.57,19.764 56.536,20.809 C56.536,20.811 55.159,65.293 55.159,65.293 L56.536,86.533 C56.57,87.568 57.394,88.386 58.413,88.386 Z M25.721,41.966 C25.095,41.966 24.583,42.467 24.534,43.134 L22.75,65.275 L24.534,86.695 C24.583,87.357 25.095,87.859 25.721,87.859 C26.342,87.859 26.851,87.357 26.906,86.695 L28.933,65.275 L26.906,43.13 C26.851,42.467 26.342,41.966 25.721,41.966 Z M41.936,30.352 C41.119,30.352 40.446,31.019 40.406,31.868 L38.824,65.285 L40.406,86.88 C40.446,87.722 41.119,88.39 41.936,88.39 C42.747,88.39 43.418,87.722 43.467,86.875 L43.467,86.88 L45.257,65.285 L43.467,31.868 C43.418,31.019 42.747,30.352 41.936,30.352 Z M10.606,47.106 C10.537,46.624 10.19,46.29 9.766,46.29 C9.337,46.29 8.982,46.634 8.925,47.106 C8.925,47.11 6.937,65.267 6.937,65.267 L8.925,83.029 C8.982,83.503 9.337,83.849 9.766,83.849 C10.19,83.849 10.537,83.513 10.604,83.033 L12.867,65.267 L10.606,47.106 Z M2.289,53.244 C1.867,53.244 1.533,53.571 1.478,54.036 L0,65.267 L1.478,76.308 C1.533,76.773 1.867,77.097 2.289,77.097 C2.697,77.097 3.03,76.777 3.096,76.312 L3.096,76.31 C3.096,76.31 3.096,76.31 3.096,76.312 L4.849,65.267 L3.096,54.032 C3.033,53.569 2.697,53.244 2.289,53.244 L2.289,53.244 Z" id="path-1"></path>
        <linearGradient x1="49.9997528%" y1="0%" x2="49.9997528%" y2="100%" id="linearGradient-3">
            <stop stop-color="#EB912D" offset="0%"></stop>
            <stop stop-color="#DB372A" offset="100%"></stop>
        </linearGradient>
    </defs>
    <g id="soundcloud-seeklogo.com-2" stroke="none" stroke-width="1" fill="none" fill-rule="evenodd">
        <mask id="mask-2" fill="white">
            <use xlink:href="#path-1"></use>
        </mask>
        <g id="Clip-2"></g>
        <path d="M182.823,112.105 L180.995,112.105 L180.995,100.753 L182.959,100.753 C186.881,100.753 188.498,102.634 188.498,106.429 C188.498,109.824 186.721,112.105 182.823,112.105 Z M183.088,97.144 L177.284,97.144 L177.284,115.71 L182.823,115.71 C187.6,115.71 192.317,112.951 192.317,106.429 C192.317,99.638 188.395,97.144 183.088,97.144 Z M168.928,107.57 C168.928,110.539 167.473,112.369 165.114,112.369 C162.748,112.369 161.319,110.486 161.319,107.515 L161.319,97.144 L157.608,97.144 L157.608,107.57 C157.608,112.976 160.629,116 165.114,116 C169.832,116 172.643,112.896 172.643,107.515 L172.643,97.144 L168.928,97.144 L168.928,107.57 Z M145.887,112.314 C142.889,112.314 141.643,109.742 141.643,106.429 C141.643,103.113 142.889,100.543 145.887,100.543 C148.879,100.543 150.127,103.113 150.127,106.429 C150.127,109.742 148.879,112.314 145.887,112.314 Z M145.887,96.855 C140.819,96.855 137.825,100.779 137.825,106.429 C137.825,112.08 140.819,116 145.887,116 C150.952,116 153.948,112.08 153.948,106.429 C153.948,100.779 150.952,96.855 145.887,96.855 Z M128.661,97.144 L124.95,97.144 L124.95,115.71 L136.106,115.71 L136.106,112.048 L128.661,112.048 L128.661,97.144 Z M114.891,100.543 C116.561,100.543 117.623,101.285 118.286,102.556 L121.733,100.966 C120.565,98.552 118.444,96.855 114.942,96.855 C110.094,96.855 106.698,100.779 106.698,106.429 C106.698,112.289 109.957,116 114.811,116 C118.18,116 120.407,114.435 121.68,111.81 L118.551,109.953 C117.571,111.599 116.586,112.314 114.918,112.314 C112.133,112.314 110.514,109.767 110.514,106.429 C110.514,102.982 112.11,100.543 114.891,100.543 Z M93.913,112.105 L92.086,112.105 L92.086,100.753 L94.049,100.753 C97.975,100.753 99.593,102.634 99.593,106.429 C99.593,109.824 97.812,112.105 93.913,112.105 Z M94.181,97.144 L88.374,97.144 L88.374,115.71 L93.913,115.71 C98.688,115.71 103.409,112.951 103.409,106.429 C103.409,99.638 99.484,97.144 94.181,97.144 Z M79.941,104.998 C79.941,106.031 79.994,108.363 79.994,109.054 C79.755,108.576 79.148,107.648 78.698,106.957 L72.117,97.144 L68.565,97.144 L68.565,115.71 L72.226,115.71 L72.226,107.541 C72.226,106.507 72.173,104.175 72.173,103.486 C72.41,103.96 73.021,104.888 73.471,105.582 L80.287,115.71 L83.602,115.71 L83.602,97.144 L79.941,97.144 L79.941,104.998 Z M60.215,107.57 C60.215,110.539 58.753,112.369 56.396,112.369 C54.036,112.369 52.604,110.486 52.604,107.515 L52.604,97.144 L48.89,97.144 L48.89,107.57 C48.89,112.976 51.914,116 56.396,116 C61.115,116 63.927,112.896 63.927,107.515 L63.927,97.144 L60.215,97.144 L60.215,107.57 Z M37.169,112.314 C34.174,112.314 32.926,109.742 32.926,106.429 C32.926,103.113 34.174,100.543 37.169,100.543 C40.169,100.543 41.413,103.113 41.413,106.429 C41.413,109.742 40.169,112.314 37.169,112.314 Z M37.169,96.855 C32.105,96.855 29.111,100.779 29.111,106.429 C29.111,112.08 32.105,116 37.169,116 C42.232,116 45.231,112.08 45.231,106.429 C45.231,100.779 42.232,96.855 37.169,96.855 Z M20.088,104.361 C17.146,103.668 16.35,103.298 16.35,102.132 C16.35,101.31 17.013,100.46 19.001,100.46 C20.7,100.46 22.025,101.15 23.219,102.371 L25.897,99.771 C24.147,97.943 22.025,96.855 19.137,96.855 C15.475,96.855 12.506,98.923 12.506,102.293 C12.506,105.951 14.893,107.039 18.312,107.832 C21.812,108.627 22.45,109.16 22.45,110.353 C22.45,111.759 21.413,112.369 19.215,112.369 C17.438,112.369 15.768,111.759 14.469,110.246 L11.787,112.632 C13.194,114.701 15.899,116 19.001,116 C24.068,116 26.295,113.613 26.295,110.087 C26.295,106.054 23.032,105.048 20.088,104.361 Z M100.64,6.542 C99.146,6.542 97.919,7.77 97.897,9.276 L96.776,65.312 L97.899,85.65 C97.919,87.134 99.146,88.361 100.64,88.361 C102.129,88.361 103.356,87.134 103.377,85.628 L103.377,85.652 L104.596,65.312 L103.377,9.272 C103.356,7.77 102.129,6.542 100.64,6.542 Z M177.364,38.788 C173.956,38.788 170.704,39.479 167.743,40.719 C165.762,18.3 146.963,0.714 124.032,0.714 C118.42,0.714 112.952,1.818 108.12,3.688 C106.241,4.414 105.743,5.162 105.725,6.612 L105.725,85.562 C105.745,87.085 106.924,88.353 108.411,88.502 C108.475,88.509 176.92,88.543 177.364,88.543 C191.102,88.543 202.239,77.404 202.239,63.664 C202.239,49.925 191.102,38.788 177.364,38.788 Z M68.796,86.406 L68.796,86.396 L70.23,65.296 L68.796,19.312 C68.762,18.168 67.861,17.274 66.748,17.274 C65.631,17.274 64.73,18.168 64.698,19.312 L63.424,65.296 L64.7,86.404 C64.73,87.533 65.631,88.427 66.748,88.427 C67.861,88.427 68.757,87.533 68.796,86.398 L68.796,86.406 Z M50.143,88.429 C51.052,88.429 51.802,87.689 51.846,86.742 L53.516,65.289 L51.846,24.231 C51.802,23.283 51.052,22.542 50.143,22.542 C49.225,22.542 48.478,23.283 48.437,24.231 C48.437,24.232 46.958,65.289 46.958,65.289 L48.439,86.75 C48.478,87.689 49.225,88.429 50.143,88.429 Z M83.617,19.743 C82.299,19.743 81.246,20.79 81.22,22.127 L80.15,65.302 L81.22,86.076 C81.246,87.4 82.299,88.445 83.617,88.445 C84.93,88.445 85.979,87.4 86.008,86.062 L86.008,86.08 L87.208,65.304 L86.008,22.124 C85.979,20.79 84.93,19.743 83.617,19.743 Z M17.71,87.027 C18.236,87.027 18.661,86.611 18.723,86.037 L20.867,65.271 L18.725,43.72 C18.661,43.145 18.236,42.729 17.71,42.729 C17.177,42.729 16.749,43.147 16.696,43.72 C16.696,43.722 14.809,65.271 14.809,65.271 L16.696,86.031 C16.749,86.611 17.177,87.027 17.71,87.027 Z M33.796,88.21 C34.517,88.21 35.099,87.634 35.153,86.875 L37.062,65.275 L35.153,44.729 C35.101,43.971 34.519,43.398 33.796,43.398 C33.065,43.398 32.483,43.973 32.437,44.737 L30.755,65.275 L32.437,86.873 C32.483,87.634 33.065,88.21 33.796,88.21 Z M75.15,88.406 C76.36,88.406 77.338,87.433 77.37,86.195 L77.37,86.21 L78.689,65.3 L77.37,20.488 C77.338,19.248 76.36,18.279 75.15,18.279 C73.931,18.279 72.954,19.25 72.927,20.488 L71.754,65.3 L72.929,86.205 C72.954,87.433 73.931,88.406 75.15,88.406 Z M92.146,88.488 C93.537,88.488 94.687,87.339 94.712,85.931 L94.712,85.947 L94.712,85.931 L95.795,65.308 L94.712,13.927 C94.688,12.519 93.537,11.372 92.146,11.372 C90.752,11.372 89.601,12.519 89.581,13.93 L88.612,65.291 C88.612,65.324 89.581,85.945 89.581,85.945 C89.601,87.339 90.752,88.488 92.146,88.488 Z M58.413,88.386 C59.424,88.386 60.246,87.57 60.289,86.525 L61.842,65.293 L60.289,20.807 C60.248,19.762 59.424,18.946 58.413,18.946 C57.394,18.946 56.57,19.764 56.536,20.809 C56.536,20.811 55.159,65.293 55.159,65.293 L56.536,86.533 C56.57,87.568 57.394,88.386 58.413,88.386 Z M25.721,41.966 C25.095,41.966 24.583,42.467 24.534,43.134 L22.75,65.275 L24.534,86.695 C24.583,87.357 25.095,87.859 25.721,87.859 C26.342,87.859 26.851,87.357 26.906,86.695 L28.933,65.275 L26.906,43.13 C26.851,42.467 26.342,41.966 25.721,41.966 Z M41.936,30.352 C41.119,30.352 40.446,31.019 40.406,31.868 L38.824,65.285 L40.406,86.88 C40.446,87.722 41.119,88.39 41.936,88.39 C42.747,88.39 43.418,87.722 43.467,86.875 L43.467,86.88 L45.257,65.285 L43.467,31.868 C43.418,31.019 42.747,30.352 41.936,30.352 Z M10.606,47.106 C10.537,46.624 10.19,46.29 9.766,46.29 C9.337,46.29 8.982,46.634 8.925,47.106 C8.925,47.11 6.937,65.267 6.937,65.267 L8.925,83.029 C8.982,83.503 9.337,83.849 9.766,83.849 C10.19,83.849 10.537,83.513 10.604,83.033 L12.867,65.267 L10.606,47.106 Z M2.289,53.244 C1.867,53.244 1.533,53.571 1.478,54.036 L0,65.267 L1.478,76.308 C1.533,76.773 1.867,77.097 2.289,77.097 C2.697,77.097 3.03,76.777 3.096,76.312 L3.096,76.31 C3.096,76.31 3.096,76.31 3.096,76.312 L4.849,65.267 L3.096,54.032 C3.033,53.569 2.697,53.244 2.289,53.244 L2.289,53.244 Z" id="Fill-1" fill="url(#linearGradient-3)" mask="url(#mask-2)"></path>
    </g>
</svg>